<?xml version="1.0" standalone="no"?>
<!DOCTYPE svg PUBLIC "-//W3C//DTD SVG 20010904//EN"
 "http://www.w3.org/TR/2001/REC-SVG-20010904/DTD/svg10.dtd">
<svg version="1.0" xmlns="http://www.w3.org/2000/svg"
 width="200.000000pt" height="200.000000pt" viewBox="0 0 200.000000 200.000000"
 preserveAspectRatio="xMidYMid meet">

<g transform="translate(0.000000,200.000000) scale(0.100000,-0.100000)"
fill="#000000" stroke="none">
<path d="M843 1719 c-126 -48 -217 -180 -217 -314 -1 -170 98 -298 263 -341
151 -38 314 38 389 181 38 73 43 197 11 280 -30 81 -112 164 -192 193 -76 29
-181 29 -254 1z m107 -104 l0 -65 -50 0 c-27 0 -50 3 -50 8 0 22 75 122 92
122 4 0 8 -29 8 -65z m92 38 c23 -25 58 -84 58 -98 0 -3 -22 -5 -50 -5 l-50 0
0 65 c0 36 4 65 8 65 5 0 20 -12 34 -27z m-212 -8 c0 -2 -10 -25 -22 -50 -20
-40 -25 -45 -57 -45 l-34 0 19 23 c39 47 94 89 94 72z m380 -87 c0 -4 -11 -8
-24 -8 -17 0 -27 8 -34 28 -5 15 -13 36 -17 47 -5 13 6 7 34 -20 22 -21 41
-43 41 -47z m-440 -153 c0 -47 1 -88 3 -92 1 -5 -14 -9 -33 -11 -45 -5 -60 17
-60 87 0 90 6 101 51 101 l39 0 0 -85z m178 -7 l-3 -93 -55 0 -55 0 -9 48 c-4
26 -5 67 -1 92 l6 45 60 0 60 0 -3 -92z m176 76 c8 -20 8 -103 0 -143 -7 -32
-7 -32 -63 -29 l-56 3 -3 93 -3 92 60 0 c44 0 60 -4 65 -16z m132 -31 c4 -25
3 -67 -2 -92 -8 -42 -12 -46 -40 -49 l-31 -3 0 95 0 96 33 0 c31 0 33 -2 40
-47z m-443 -245 c13 -29 23 -55 21 -57 -6 -7 -72 49 -94 79 l-21 30 35 0 c32
0 36 -4 59 -52z m137 -13 c0 -36 -4 -65 -9 -65 -14 0 -69 70 -80 102 l-10 28
50 0 49 0 0 -65z m150 60 c0 -26 -73 -125 -92 -125 -4 0 -8 29 -8 65 l0 65 50
0 c28 0 50 -2 50 -5z m110 -4 c0 -11 -81 -93 -87 -87 -2 2 6 24 19 50 17 35
28 46 45 46 13 0 23 -4 23 -9z"/>
<path d="M790 873 c-46 -17 -90 -84 -111 -169 -7 -27 -17 -52 -23 -56 -6 -4
-33 -8 -59 -8 -41 0 -48 3 -43 18 5 19 9 92 7 135 -2 55 -68 85 -124 56 -40
-21 -87 -72 -87 -96 0 -28 24 -30 42 -5 20 28 66 55 83 48 11 -4 15 -21 15
-60 0 -75 -12 -104 -47 -108 -39 -4 -46 -44 -9 -54 30 -7 31 -18 12 -92 -17
-63 -13 -82 20 -82 29 0 39 18 59 107 16 70 16 71 53 77 78 13 82 11 82 -40 0
-112 83 -174 171 -128 28 14 32 14 48 0 24 -22 63 -20 93 3 24 19 24 19 36 0
15 -24 49 -24 86 1 30 19 30 19 43 -1 21 -29 60 -24 94 13 16 18 32 41 35 50
4 14 16 18 54 18 47 0 48 0 55 -37 14 -77 55 -85 109 -21 20 23 36 45 36 50 0
4 21 8 46 8 55 0 84 14 84 41 0 19 -5 21 -41 17 -40 -4 -41 -3 -36 27 6 40 -8
65 -37 65 -33 0 -49 -24 -52 -76 -1 -25 -12 -59 -22 -76 l-20 -32 -6 35 c-3
19 -7 59 -9 89 -2 52 -4 55 -29 58 -27 3 -28 1 -28 -41 0 -40 -3 -45 -26 -50
-24 -4 -26 -3 -20 25 8 39 -9 68 -38 68 -33 0 -49 -24 -52 -75 -1 -25 -11 -58
-21 -75 -18 -31 -18 -31 -25 -8 -3 13 -6 54 -7 91 l-1 68 -27 -3 c-27 -3 -28
-5 -31 -74 -2 -60 -7 -75 -27 -94 -30 -28 -60 -21 -51 13 3 13 8 49 12 80 6
53 5 57 -14 57 -11 0 -24 5 -27 10 -10 16 -58 11 -92 -10 -34 -20 -73 -85 -73
-119 0 -27 -43 -55 -74 -47 -28 7 -46 49 -46 106 0 33 5 40 48 67 85 53 120
166 67 218 -25 26 -30 27 -55 18z m33 -57 c5 -13 -4 -65 -18 -98 -8 -19 -54
-52 -62 -45 -7 8 24 109 42 135 18 25 31 28 38 8z m173 -233 c-2 -10 -8 -34
-11 -53 -8 -39 -31 -80 -45 -80 -35 0 -28 92 11 131 24 24 52 25 45 2z"/>
</g>
</svg>
